<?xml version="1.0" encoding="UTF-8" standalone="no"?>
<svg
   width="136"
   height="28"
   viewBox="0 0 136 28"
   fill="none"
   version="1.1"
   id="svg14"
   sodipodi:docname="logo.svg"
   inkscape:version="1.1.2 (b8e25be833, 2022-02-05)"
   xmlns:inkscape="http://www.inkscape.org/namespaces/inkscape"
   xmlns:sodipodi="http://sodipodi.sourceforge.net/DTD/sodipodi-0.dtd"
   xmlns="http://www.w3.org/2000/svg"
   xmlns:svg="http://www.w3.org/2000/svg">
  <defs
     id="defs18" />
  <sodipodi:namedview
     id="namedview16"
     pagecolor="#ffffff"
     bordercolor="#666666"
     borderopacity="1.0"
     inkscape:pageshadow="2"
     inkscape:pageopacity="0.0"
     inkscape:pagecheckerboard="0"
     showgrid="false"
     inkscape:zoom="7.2407734"
     inkscape:cx="110.41638"
     inkscape:cy="45.575242"
     inkscape:window-width="1920"
     inkscape:window-height="1017"
     inkscape:window-x="-8"
     inkscape:window-y="-8"
     inkscape:window-maximized="1"
     inkscape:current-layer="svg14" />
  <g
     id="g1273"
     transform="matrix(1.381059,0,0,1.381059,-25.896427,-26.648148)">
    <path
       fill-rule="evenodd"
       clip-rule="evenodd"
       d="m 21.492,19.5542 c -1.401,0 -2.4608,1.0856 -2.4608,2.5286 v 17.0257 h 16.4054 c 1.3993,0 2.6248,-1.2541 2.6248,-2.6971 V 19.5542 Z m 12.14,14.16 -10.1697,1.8543 V 25.1171 L 33.632,23.0942 Z"
       fill="white"
       id="path2"
       style="fill:#002fa1;fill-opacity:1" />
    <path
       d="m 70.4988,25.1575 c -2.9874,0.0068 -5.1054,2.2151 -5.1136,5.804 0,3.2686 2.5396,5.3015 5.1333,5.3032 1.5437,0 2.5034,-0.2444 3.0612,-0.7147 v -1.8155 c -0.794,0.4012 -1.734,0.5293 -2.5658,0.5293 -1.5995,0.0033 -2.8857,-0.8951 -3.0957,-2.3347 l -0.018,-0.1282 h 1.8685 c 1.7538,0.0017 2.9924,-0.1635 3.7716,-0.5613 0.7793,-0.3995 1.1172,-0.9979 1.1189,-1.974 0,-2.5353 -1.9933,-4.1047 -4.1604,-4.1064 z m 1.2172,4.7049 c -0.4839,0.1736 -1.2615,0.241 -2.5231,0.2427 h -1.2993 l 0.0066,-0.118 0.0197,-0.3658 c 0.059,-1.298 0.9925,-2.4291 2.3459,-2.4291 0.6267,0 1.155,0.1416 1.5323,0.4315 0.3789,0.2933 0.5938,0.7434 0.5922,1.3149 0.0115,0.4164 -0.1837,0.7535 -0.6726,0.9221 z m 4.2326,-0.5614 v 6.78 h 2.4493 v -6.2979 c 0.0017,-0.8411 0.1657,-1.4497 0.502,-1.8543 0.3363,-0.4028 0.8351,-0.5798 1.4486,-0.5798 0.2494,0 0.4676,0.0219 0.6661,0.059 v -1.9959 c -0.3084,-0.1602 -0.712,-0.263 -1.2419,-0.263 -2.7446,0.0067 -3.8159,2.0043 -3.8241,4.1502 z M 43.7188,22.4199 v 13.6543 h 2.4607 V 22.4199 Z m 9.0426,2.7376 c -3.2647,0.0068 -4.687,2.2977 -4.6985,4.5515 v 6.372 h 2.4345 v -6.1866 c 0,-0.7973 0.2018,-1.4379 0.5644,-1.8779 0.3625,-0.4433 0.8826,-0.6793 1.4846,-0.6777 0.7022,0 1.278,0.2091 1.6717,0.6693 0.3905,0.4652 0.5923,1.1547 0.5923,2.0869 v 5.986 h 2.4312 V 29.8539 C 57.2367,26.818 55.2254,25.1643 52.763,25.1558 Z m 8.7784,-2.7376 h -2.4197 l 0.0082,9.8564 c 0.0131,2.4999 1.2386,3.9766 3.8847,3.9867 1.1238,0 1.7997,-0.3759 2.0786,-0.9743 v -1.5542 c -0.4364,0.1989 -1.0286,0.2882 -1.7619,0.2882 -0.548,0 -1.0073,-0.1433 -1.3207,-0.4855 -0.3133,-0.3422 -0.4692,-0.8614 -0.4692,-1.5845 v -4.6139 h 2.1212 c 1.0369,0 1.4716,-0.6793 1.4732,-1.18 v -0.9996 h -3.5944 z"
       fill="white"
       id="path4"
       style="fill:#002fa1;fill-opacity:1" />
    <path
       d="m 101.535,29.2758 v 6.7715 h 2.448 v -6.286 c 0,-0.8429 0.164,-1.4497 0.499,-1.8509 0.337,-0.4046 0.835,-0.5799 1.443,-0.5782 0.251,0 0.471,0.0185 0.67,0.0556 v -1.9925 c -0.309,-0.1601 -0.712,-0.263 -1.239,-0.263 -2.74,0.0068 -3.811,2.001 -3.821,4.1435 z"
       fill="white"
       id="path6"
       style="fill:#002fa1;fill-opacity:1" />
    <path
       d="m 95.5303,25.1306 c -3.2121,0 -4.9248,2.5775 -4.9248,5.7888 0,2.8337 1.7127,5.2358 4.705,5.2358 3.2138,0 4.9285,-2.4005 4.9285,-5.6117 0,-2.8337 -1.7163,-5.4112 -4.7087,-5.4112 z m 0.005,8.7438 c -1.6914,0 -2.4329,-1.1513 -2.4329,-3.3377 0,-1.8172 0.7415,-3.1236 2.2065,-3.1236 1.6733,0 2.4345,1.3064 2.4345,3.513 0,1.797 -0.7235,2.95 -2.2065,2.95 z"
       fill="white"
       id="path8"
       style="fill:#002fa1;fill-opacity:1" />
    <path
       d="m 84.4232,31.2767 0.0164,0.1282 c 0.21,1.4379 1.2927,2.6971 2.8906,2.6921 0.8318,0 1.7718,-0.1282 2.5642,-0.5277 v 1.7144 c -0.5562,0.4669 -1.5159,0.9423 -3.0563,0.9423 -2.5921,-0.0017 -5.1858,-2.0346 -5.1858,-5.2965 0.0066,-3.5855 2.182,-5.7938 5.1644,-5.7989 0.0033,0 0.0033,0.0017 0.0033,0.0017 0.0082,0 0.0099,-0.0017 0.0164,-0.0017 1.5405,0 2.5002,0.4568 3.0563,0.9221 v 1.7346 c -0.7923,-0.4012 -1.7324,-0.5327 -2.5641,-0.5327 -1.5897,0 -2.6954,1.2407 -2.9136,2.6618 -0.1083,0.7248 0.0066,1.3587 0.0066,1.3587 z"
       fill="white"
       id="path10"
       style="fill:#002fa1;fill-opacity:1" />
    <path
       d="m 112.334,25.2351 c -3.534,0 -5.022,2.4763 -5.022,6.0484 v 5.9758 c 0,1.1564 0.857,1.8577 1.748,1.8577 h 0.781 v -4.2194 c 0.502,0.9171 1.414,1.4464 2.528,1.4464 2.92,0 4.518,-2.3448 4.518,-5.8006 0,-2.7123 -1.897,-5.3083 -4.554,-5.3083 z m -0.056,8.8854 c -1.488,0 -2.472,-1.2171 -2.472,-3.3765 0,-1.8543 0.763,-3.132 2.138,-3.132 1.599,0 2.38,1.0974 2.38,3.6327 0,1.7177 -0.838,2.8758 -2.047,2.8758 z"
       fill="white"
       id="path12"
       style="fill:#002fa1;fill-opacity:1" />
  </g>
</svg>
